<svg width="179" height="65" viewBox="0 0 179 65" fill="white" xmlns="http://www.w3.org/2000/svg">
<path fill-rule="evenodd" clip-rule="evenodd" d="M21.9396 11.6096C23.941 10.9596 25.3648 14.0176 22.9279 14.3375C19.6053 14.7737 19.8002 12.3045 21.9396 11.6096ZM17.6069 12.6546C17.7313 14.0802 20.2299 16.4285 23.2192 16.1026C25.4761 15.8566 28.2424 13.7943 27.0803 11.3376L28.8702 11.7228C28.7332 11.5312 28.8179 11.5899 28.6017 11.451L27.6198 11.0752C26.0708 10.616 24.5157 10.3182 22.8803 10.5227C20.9685 10.7615 18.8139 11.7985 17.6069 12.6546ZM51.1053 59.3313C51.3264 59.5667 51.6466 60.0159 51.666 60.4774C51.6224 60.442 51.5967 60.4087 51.55 60.3648C51.5051 60.3227 51.4905 60.2981 51.4491 60.262C51.0636 59.9257 50.0421 59.3836 49.5764 59.1076C49.0994 58.825 48.3681 58.4607 48.1323 57.9588C48.0628 57.811 47.9357 57.5057 47.9047 57.3347C47.9838 57.3739 47.9689 57.3757 48.0355 57.4402C48.0751 57.4786 48.1065 57.4966 48.1497 57.5314C48.3965 57.7298 48.6859 57.8501 48.9828 57.9942C49.6673 58.3264 50.5879 58.7804 51.1053 59.3313ZM42.7661 47.0769C42.7526 47.037 42.7476 47.011 42.736 46.9725C42.6005 46.5252 42.3531 46.083 42.0882 45.7089L41.6093 45.0961C41.2922 44.6901 40.8915 44.3522 40.4983 44.0225C40.2993 43.8555 40.0988 43.7115 39.8815 43.5471C38.7163 42.6651 37.0823 41.8422 35.7577 41.1631C34.7953 40.6697 33.7884 40.2261 32.8853 39.6895C31.8703 39.0866 31.1073 38.5839 30.7986 37.4309C30.7759 37.3463 30.7144 37.4178 30.7173 37.4158C30.454 38.074 30.0937 38.8413 29.7588 39.4652C30.0195 39.9915 30.41 40.4963 30.9817 40.9555C33.1102 42.6646 36.2345 44.0462 38.6414 45.4923C39.5133 46.0161 40.3768 46.6006 41.0784 47.3328C41.3774 47.6448 41.6559 47.9729 41.8848 48.3464C42.6228 49.5506 42.4997 49.9253 42.4281 51.3201C42.3154 51.2737 42.1917 51.1876 42.0855 51.1261C39.9492 49.8868 35.958 48.3363 34.6563 46.5875C34.0168 45.7284 33.7341 44.788 33.6322 43.4651C33.5437 43.6626 33.4647 43.9528 33.3968 44.1721C33.1529 44.9591 32.9597 45.753 33.0508 46.6009C33.2262 48.2337 34.252 49.3066 35.503 50.1635C37.106 51.2617 39.5265 52.5021 41.2685 53.4221C42.1006 53.8617 42.8884 54.3585 43.5851 54.8598C44.3049 55.3777 44.5209 55.6068 45.0758 56.1903C45.2069 56.328 45.3599 56.539 45.4811 56.7185C46.2618 57.8761 46.2509 58.3154 46.1607 59.7097C45.8839 59.595 45.469 59.0984 45.3323 58.8692C44.9698 58.2611 45.0702 57.9389 44.9337 57.6096C44.7911 58.1633 44.6146 58.6842 44.7362 59.3062C44.8412 59.8427 45.0589 60.1895 45.451 60.5246C47.0066 61.8538 50.3597 62.5962 51.4362 64.2557C51.4951 64.3464 51.5428 64.4268 51.5815 64.5C51.6318 64.4426 52.0139 63.6501 52.0377 63.5665C52.0837 63.4056 52.1282 63.2464 52.1694 63.0786C52.5927 61.3571 51.9222 60.9916 51.9538 60.793C51.9684 60.701 52.0081 60.5754 52.0285 60.4778C52.2048 59.6333 52.0263 59.1565 52.0587 59.0096C52.1536 58.579 52.2882 58.1748 52.3731 57.7097C52.5629 56.6697 52.5208 55.8215 52.0379 55.0311C51.7559 54.5694 51.337 54.0327 50.9101 53.7019C50.0786 53.0578 48.3776 52.1826 47.3878 51.5808C47.2057 51.4701 47.0508 51.3723 46.8877 51.2625C46.0406 50.6919 45.8589 50.4174 45.4951 49.4239C45.4246 49.2312 45.3936 48.9987 45.3213 48.8153C45.1837 49.0853 44.9591 50.175 44.9206 50.5485C44.8468 51.2637 44.9655 51.7883 45.275 52.3054C45.5169 52.7098 45.9607 53.1309 46.3416 53.3784C46.9592 53.7798 47.7731 54.0894 48.4409 54.4644C49.6541 55.1457 50.6671 55.5854 51.4025 56.8493C51.7004 57.3613 51.7971 57.8754 51.8084 58.5754L51.6862 58.4315C51.1398 57.6619 50.356 57.3397 49.5486 56.8605C49.1281 56.6108 48.7182 56.3676 48.297 56.1388C48.2716 56.1715 48.242 56.2222 48.2106 56.2826C48.1102 56.4753 47.9915 56.7674 47.9337 56.8953C47.8744 57.0266 47.8013 57.1843 47.7798 57.2658C47.7525 57.369 47.733 57.4688 47.6989 57.6081C47.5691 58.1381 47.4968 58.6442 47.7228 59.1416C48.0074 59.7684 48.5991 60.0526 49.1731 60.3309C49.3771 60.4297 49.5539 60.5289 49.7564 60.6336C50.7267 61.1352 51.7645 61.7208 51.8832 62.9238C51.9025 63.1197 51.9503 63.5778 51.8912 63.7366C51.7591 63.5119 51.795 63.3504 51.4976 62.9202C50.7234 61.8 49.0203 61.0592 47.838 60.5496C47.4414 60.3786 46.5353 60.0181 46.2345 59.765C46.636 57.6348 47.0689 56.249 45.9225 54.4335C45.7492 54.1589 45.2686 53.5175 45.0062 53.3026C44.9182 53.2306 44.8894 53.1744 44.8073 53.0921C44.6778 52.9623 44.5276 52.8492 44.3832 52.7192C43.8625 52.2503 42.5175 51.3854 42.4863 51.3558C42.5034 51.1693 42.5818 50.9006 42.6209 50.711C42.7571 50.0508 42.8836 49.3957 42.9228 48.7171C42.9353 48.4995 42.9056 48.1251 42.931 47.9481C42.9526 47.7973 43.0509 47.5239 43.096 47.3629C43.4433 46.1265 43.7949 44.7176 43.3349 43.4842C43.14 42.9616 42.4644 42.0448 42.075 41.6956C41.0917 40.8139 38.6434 39.6226 37.3515 38.7729C36.6428 38.3068 36.2624 37.9963 35.9267 37.1492C35.8518 36.9603 35.783 36.7744 35.7162 36.5856C35.663 36.4352 35.623 36.1187 35.553 36.0087C35.4819 36.136 35.3332 36.7798 35.2891 36.9622C35.0349 38.0112 34.9572 39.057 35.535 39.9524C36.2474 41.0563 37.2477 41.3893 38.3554 41.9565C39.2587 42.4191 40.6627 43.1343 41.3792 43.7781C41.7397 44.102 42.1655 44.5928 42.4366 45.1334C42.7368 45.7319 42.823 46.4232 42.8164 47.1816L42.7661 47.0769Z" />
<path fill-rule="evenodd" clip-rule="evenodd" d="M45.4287 48.5335C45.4707 48.4607 46.0105 46.5006 46.0126 46.4051C44.977 46.1724 44.9238 45.5104 44.893 44.6745C44.6262 45.4389 43.9361 47.2526 44.5992 47.953C44.7436 48.1056 45.2251 48.4661 45.4287 48.5335ZM37.8252 37.9961L38.4157 35.8577C38.0113 35.8045 37.6824 35.5562 37.524 35.3252C37.3122 35.0165 37.3037 34.5716 37.282 34.1444L37.1899 34.4038C36.9289 35.2219 36.3518 36.7509 37.0111 37.4299C37.2056 37.6302 37.5877 37.8798 37.8252 37.9961ZM29.7588 39.4652L30.7986 37.4309C32.2378 35.2561 39.7017 26.3477 34.7729 24.743C36.6427 28.7413 28.3394 35.8811 29.7588 39.4652Z" />
<path fill-rule="evenodd" clip-rule="evenodd" d="M25.2233 29.5299C26.4254 29.5136 27.3545 29.5147 27.9014 30.8267C28.0375 31.1533 28.0589 31.5001 28.2333 32.2753C28.3319 32.7133 28.4381 33.1446 28.5605 33.5423C28.6922 33.9704 28.8852 34.3511 29.3129 34.7787C29.558 35.0238 29.8188 35.1544 30.4542 35.3454C30.6935 35.4173 30.9485 35.4724 31.2979 35.521C30.3385 35.5105 29.091 35.6591 28.2769 35.0685C28.1017 34.9414 27.938 34.7585 27.6846 34.4212C27.3736 34.0072 27.2844 33.7204 27.0468 32.8467C26.9021 32.3146 26.7762 31.7935 26.6014 31.2006C26.4779 30.7821 26.3306 30.4071 26.1563 30.2056C26.0376 30.0683 25.8595 29.934 25.5253 29.7013L25.2233 29.5299ZM30.4285 34.1492C31.2571 30.0203 36.5138 24.3324 32.8456 23.5479C34.4362 26.1923 29.1813 31.7601 30.4285 34.1492ZM24.8598 29.8096C20.7246 36.3114 24.2912 43.5563 28.8296 48.883C33.746 54.6534 40.5991 59.3606 44.3588 63.695C38.8377 52.9893 29.419 51.2536 25.3213 38.0692C24.4411 35.2372 24.012 32.3094 24.8598 29.8096Z" />
<path fill-rule="evenodd" clip-rule="evenodd" d="M13.4888 12.5274C14.4705 10.6699 17.1163 8.9014 19.5139 7.9293C24.951 5.72476 31.4568 5.64264 36.4093 9.02124C38.4863 10.4382 40.1002 12.2932 41.5344 14.4889C43.3717 17.3019 43.7349 18.6493 45.0441 21.5751C47.0423 26.0411 48.7159 27.8109 51.5698 30.9827C53.3363 32.946 57.9383 38.0502 59.9507 38.4139C60.8294 36.0231 61.1116 31.1555 60.8702 28.3907C60.5957 25.2452 59.8593 22.1373 58.7822 19.4811C55.666 11.7956 49.8964 6.06498 42.3708 2.81401C39.8611 1.72998 36.6247 0.924467 33.5604 0.635396C26.7139 -0.0103787 20.5932 1.71522 15.6847 4.50434C7.45196 9.18202 -0.453681 19.2086 0.593701 33.3417C1.23197 41.9529 6.05148 49.9659 12.2759 54.6716C13.9284 55.921 17.258 58.1445 19.3267 58.7029C19.3132 57.2296 18.5279 55.194 18.2013 53.7474C17.024 48.5326 17.1107 42.9782 18.2952 37.8539C18.6635 36.261 19.0986 34.7708 19.645 33.2988C20.1896 31.8316 20.9759 30.3324 20.5866 28.4911C19.959 25.5248 16.9319 22.2995 16.4128 20.8878L17.5838 19.8324C18.9051 18.6113 21.0559 19.4344 23.3169 19.5638C23.2879 19.204 22.8191 18.3402 22.6277 18.0324C21.6647 16.4843 19.8332 16.3853 18.3593 15.589C17.1485 14.9349 16.9934 14.413 16.3168 13.1803C15.7804 12.2029 14.5754 11.5589 13.4888 12.5274ZM10.3609 19.7686C11.1881 19.666 12.7688 19.5628 13.7245 19.6793C14.6146 19.7879 14.9229 20.0661 15.6275 20.2866C16.3698 19.8035 17.1516 19.0318 17.9429 18.7445C18.7553 18.4494 19.5464 18.5994 20.8714 18.8826C20.5529 18.3806 19.7083 17.8718 18.8568 17.676C17.9254 17.4617 17.3823 17.2566 16.3577 16.7869C15.5138 16.4665 14.3334 16.6015 13.5098 16.1565C12.5766 15.6522 12.3863 14.8089 11.9883 14.1974C11.0843 14.3366 9.26603 16.9528 8.83941 18.3284C8.10806 20.6858 9.82955 22.3916 10.825 23.3065C10.7089 22.7605 9.8969 21.2165 10.3609 19.7686Z" />
<path d="M166.848 40.3171H162.276L167.427 24.7133H173.217L178.368 40.3171H173.796L170.383 29.0105H170.261L166.848 40.3171ZM165.995 34.1609H174.589V37.3305H165.995V34.1609Z" />
<path d="M152.642 29.5895C152.602 29.0816 152.411 28.6854 152.071 28.401C151.735 28.1165 151.225 27.9743 150.539 27.9743C150.102 27.9743 149.744 28.0276 149.465 28.1343C149.191 28.2359 148.988 28.3756 148.855 28.5533C148.723 28.7311 148.655 28.9343 148.65 29.1629C148.64 29.3508 148.673 29.521 148.749 29.6733C148.83 29.8206 148.957 29.9552 149.13 30.0771C149.302 30.194 149.523 30.3006 149.793 30.3971C150.062 30.4937 150.382 30.58 150.753 30.6562L152.033 30.9305C152.896 31.1133 153.635 31.3546 154.25 31.6543C154.864 31.954 155.367 32.307 155.758 32.7133C156.149 33.1146 156.436 33.5667 156.619 34.0695C156.807 34.5724 156.904 35.121 156.909 35.7152C156.904 36.7413 156.647 37.6098 156.139 38.321C155.631 39.0321 154.905 39.573 153.96 39.9438C153.021 40.3146 151.89 40.5 150.57 40.5C149.214 40.5 148.03 40.2994 147.019 39.8981C146.014 39.4968 145.231 38.8797 144.673 38.0467C144.119 37.2086 143.84 36.1368 143.835 34.8314H147.857C147.883 35.3089 148.002 35.7102 148.215 36.0352C148.429 36.3603 148.729 36.6067 149.115 36.7743C149.506 36.9419 149.97 37.0257 150.509 37.0257C150.961 37.0257 151.339 36.9698 151.644 36.8581C151.949 36.7463 152.18 36.5914 152.337 36.3933C152.495 36.1952 152.576 35.9692 152.581 35.7152C152.576 35.4765 152.497 35.2683 152.345 35.0905C152.198 34.9076 151.954 34.7451 151.614 34.6029C151.273 34.4556 150.814 34.3184 150.235 34.1914L148.68 33.8562C147.299 33.5565 146.209 33.0562 145.412 32.3552C144.619 31.6492 144.226 30.6867 144.231 29.4676C144.226 28.4771 144.49 27.6111 145.023 26.8695C145.562 26.1229 146.306 25.5413 147.255 25.1248C148.21 24.7083 149.305 24.5 150.539 24.5C151.799 24.5 152.889 24.7108 153.808 25.1324C154.727 25.554 155.436 26.1483 155.934 26.9152C156.436 27.6771 156.69 28.5686 156.695 29.5895H152.642Z" />
<path d="M126.934 40.3171H122.362L127.513 24.7133H133.303L138.454 40.3171H133.882L130.469 29.0105H130.347L126.934 40.3171ZM126.08 34.1609H134.675V37.3305H126.08V34.1609Z" />
<path d="M104.275 40.3171V24.7133H111.01C112.168 24.7133 113.181 24.9241 114.05 25.3457C114.918 25.7673 115.594 26.3743 116.076 27.1667C116.559 27.959 116.8 28.9089 116.8 30.0162C116.8 31.1336 116.551 32.0759 116.054 32.8428C115.561 33.6098 114.868 34.1889 113.974 34.58C113.085 34.9711 112.046 35.1667 110.857 35.1667H106.835V31.8752H110.004C110.502 31.8752 110.926 31.8143 111.276 31.6924C111.632 31.5654 111.904 31.3648 112.092 31.0905C112.285 30.8162 112.381 30.4581 112.381 30.0162C112.381 29.5692 112.285 29.206 112.092 28.9267C111.904 28.6422 111.632 28.434 111.276 28.3019C110.926 28.1648 110.502 28.0962 110.004 28.0962H108.511V40.3171H104.275ZM113.417 33.1552L117.318 40.3171H112.716L108.907 33.1552H113.417Z" />
<path d="M97.9926 24.7133V40.3171H93.7564V24.7133H97.9926Z" />
<path d="M76.9526 40.3171V24.7133H87.9241V28.1267H81.1888V30.8086H87.2536V34.2219H81.1888V40.3171H76.9526Z" />
</svg>
