<svg width="353" height="360" viewBox="0 0 353 360" fill="none" xmlns="http://www.w3.org/2000/svg">
<path fill-rule="evenodd" clip-rule="evenodd" d="M135.884 47.6354C144.416 44.8645 150.485 57.8997 140.097 59.2634C125.934 61.1229 126.765 50.5976 135.884 47.6354ZM117.416 52.0898C117.946 58.1667 128.596 68.1764 141.339 66.7874C150.959 65.7386 162.751 56.9482 157.797 46.4761L165.427 48.1179C164.843 47.3012 165.204 47.5512 164.282 46.9593L160.097 45.3575C153.494 43.3999 146.865 42.1309 139.894 43.0023C131.745 44.0205 122.561 48.4404 117.416 52.0898ZM260.207 251.055C261.149 252.059 262.514 253.974 262.597 255.941C262.411 255.79 262.301 255.648 262.102 255.461C261.911 255.281 261.849 255.176 261.672 255.022C260.029 253.589 255.675 251.278 253.689 250.102C251.656 248.897 248.539 247.344 247.534 245.205C247.238 244.575 246.696 243.274 246.564 242.545C246.901 242.712 246.837 242.719 247.121 242.994C247.29 243.158 247.424 243.235 247.608 243.383C248.66 244.229 249.894 244.741 251.159 245.356C254.077 246.772 258.001 248.707 260.207 251.055ZM224.66 198.819C224.602 198.649 224.581 198.539 224.531 198.375C223.954 196.468 222.9 194.583 221.77 192.988L219.729 190.376C218.377 188.645 216.669 187.205 214.993 185.799C214.145 185.088 213.29 184.474 212.364 183.773C207.397 180.014 200.432 176.506 194.786 173.611C190.683 171.508 186.391 169.617 182.542 167.329C178.215 164.76 174.963 162.617 173.647 157.702C173.55 157.341 173.288 157.646 173.3 157.638C172.178 160.443 170.642 163.714 169.214 166.374C170.326 168.617 171.99 170.769 174.427 172.726C183.5 180.011 196.818 185.901 207.078 192.065C210.794 194.297 214.475 196.789 217.466 199.91C218.74 201.24 219.928 202.639 220.903 204.231C224.049 209.364 223.524 210.961 223.219 216.907C222.739 216.709 222.211 216.342 221.759 216.079C212.652 210.797 195.639 204.188 190.091 196.733C187.365 193.071 186.16 189.062 185.725 183.423C185.348 184.266 185.011 185.503 184.722 186.437C183.682 189.792 182.859 193.176 183.247 196.79C183.995 203.75 188.368 208.324 193.7 211.977C200.533 216.658 210.851 221.945 218.276 225.867C221.823 227.74 225.181 229.858 228.151 231.995C231.219 234.202 232.14 235.179 234.505 237.666C235.064 238.253 235.716 239.153 236.233 239.918C239.561 244.853 239.514 246.725 239.13 252.668C237.95 252.179 236.181 250.063 235.599 249.085C234.054 246.493 234.481 245.12 233.899 243.716C233.292 246.077 232.539 248.297 233.058 250.948C233.505 253.235 234.433 254.714 236.105 256.142C242.736 261.808 257.028 264.973 261.617 272.046C261.868 272.433 262.072 272.775 262.236 273.088C262.451 272.843 264.08 269.465 264.181 269.109C264.377 268.423 264.567 267.744 264.743 267.029C266.547 259.691 263.689 258.133 263.824 257.286C263.886 256.894 264.055 256.359 264.142 255.943C264.893 252.343 264.133 250.31 264.271 249.684C264.675 247.848 265.249 246.126 265.611 244.143C266.42 239.71 266.24 236.095 264.182 232.725C262.98 230.757 261.194 228.469 259.375 227.059C255.83 224.314 248.58 220.583 244.36 218.018C243.584 217.546 242.924 217.129 242.229 216.661C238.618 214.229 237.843 213.059 236.293 208.824C235.992 208.002 235.86 207.011 235.552 206.23C234.965 207.38 234.008 212.025 233.844 213.618C233.529 216.666 234.035 218.902 235.354 221.107C236.386 222.83 238.277 224.625 239.901 225.68C242.533 227.391 246.003 228.711 248.849 230.309C254.021 233.213 258.339 235.088 261.474 240.476C262.743 242.658 263.156 244.849 263.204 247.833L262.683 247.22C260.354 243.939 257.013 242.566 253.571 240.523C251.779 239.459 250.031 238.422 248.236 237.447C248.128 237.586 248.002 237.802 247.868 238.06C247.44 238.881 246.934 240.127 246.688 240.671C246.435 241.231 246.123 241.904 246.031 242.251C245.915 242.691 245.832 243.116 245.686 243.71C245.133 245.969 244.825 248.126 245.788 250.247C247.002 252.919 249.524 254.13 251.97 255.316C252.84 255.738 253.594 256.16 254.457 256.607C258.593 258.745 263.017 261.241 263.523 266.369C263.605 267.204 263.809 269.157 263.557 269.834C262.994 268.876 263.147 268.187 261.879 266.353C258.579 261.578 251.319 258.421 246.28 256.248C244.589 255.52 240.726 253.983 239.444 252.904C241.156 243.824 243.001 237.916 238.114 230.178C237.375 229.007 235.327 226.273 234.208 225.357C233.834 225.05 233.711 224.811 233.361 224.46C232.809 223.907 232.168 223.425 231.553 222.87C229.334 220.871 223.6 217.185 223.467 217.059C223.54 216.264 223.874 215.118 224.041 214.31C224.621 211.496 225.161 208.703 225.328 205.811C225.381 204.883 225.255 203.288 225.363 202.533C225.455 201.89 225.874 200.725 226.066 200.038C227.546 194.768 229.045 188.763 227.084 183.505C226.253 181.277 223.374 177.369 221.714 175.881C217.522 172.123 207.086 167.044 201.579 163.423C198.559 161.436 196.937 160.112 195.506 156.501C195.187 155.696 194.893 154.904 194.609 154.099C194.382 153.458 194.211 152.109 193.913 151.64C193.61 152.182 192.976 154.927 192.788 155.704C191.705 160.176 191.373 164.633 193.836 168.45C196.873 173.156 201.137 174.575 205.859 176.993C209.709 178.965 215.694 182.014 218.748 184.758C220.285 186.138 222.1 188.23 223.255 190.535C224.535 193.086 224.902 196.033 224.874 199.265L224.66 198.819Z" fill="white"/>
<path fill-rule="evenodd" clip-rule="evenodd" d="M236.009 205.028C236.189 204.718 238.489 196.363 238.499 195.956C234.084 194.964 233.857 192.142 233.726 188.579C232.589 191.837 229.647 199.568 232.474 202.554C233.089 203.204 235.142 204.741 236.009 205.028ZM203.599 160.111L206.116 150.996C204.392 150.769 202.99 149.711 202.315 148.726C201.412 147.41 201.376 145.514 201.283 143.693L200.891 144.799C199.778 148.286 197.318 154.803 200.129 157.698C200.958 158.552 202.586 159.616 203.599 160.111ZM169.214 166.374L173.647 157.702C179.782 148.432 211.597 110.459 190.588 103.618C198.558 120.661 163.164 151.096 169.214 166.374Z" fill="white"/>
<path fill-rule="evenodd" clip-rule="evenodd" d="M149.882 124.023C155.005 123.953 158.966 123.958 161.297 129.551C161.877 130.943 161.969 132.421 162.712 135.725C163.132 137.593 163.585 139.431 164.107 141.127C164.668 142.951 165.491 144.574 167.314 146.397C168.359 147.441 169.47 147.998 172.179 148.812C173.199 149.119 174.286 149.354 175.775 149.561C171.686 149.516 166.368 150.15 162.898 147.632C162.151 147.09 161.453 146.311 160.373 144.873C159.047 143.108 158.667 141.886 157.654 138.161C157.038 135.893 156.501 133.672 155.755 131.145C155.229 129.361 154.601 127.762 153.858 126.903C153.353 126.318 152.593 125.746 151.168 124.754L149.882 124.023ZM172.069 143.713C175.601 126.113 198.009 101.868 182.372 98.5241C189.153 109.796 166.753 133.529 172.069 143.713ZM148.332 125.215C130.705 152.93 145.908 183.812 165.254 206.518C186.211 231.115 215.423 251.18 231.449 269.656C207.914 224.022 167.766 216.623 150.299 160.423C146.547 148.351 144.718 135.871 148.332 125.215Z" fill="white"/>
<path fill-rule="evenodd" clip-rule="evenodd" d="M99.8617 51.5475C104.046 43.6298 115.324 36.0913 125.544 31.9476C148.721 22.5505 176.452 22.2005 197.563 36.6022C206.417 42.642 213.296 50.5494 219.409 59.9086C227.241 71.8994 228.79 77.6432 234.37 90.1145C242.888 109.152 250.022 116.695 262.187 130.216C269.717 138.585 289.333 160.342 297.911 161.892C301.657 151.701 302.86 130.952 301.831 119.167C300.661 105.759 297.522 92.511 292.931 81.1885C279.647 48.4282 255.054 24.0008 222.975 10.1431C212.277 5.52226 198.481 2.08864 185.42 0.856442C156.235 -1.89626 130.145 5.45932 109.222 17.3483C74.1287 37.2875 40.4299 80.0269 44.8945 140.271C47.6152 176.977 68.159 211.134 94.6913 231.193C101.735 236.518 115.928 245.996 124.746 248.377C124.689 242.097 121.341 233.42 119.949 227.253C114.931 205.025 115.3 181.348 120.35 159.505C121.92 152.715 123.774 146.363 126.103 140.088C128.424 133.834 131.776 127.444 130.117 119.595C127.442 106.951 114.538 93.2026 112.325 87.1849L117.317 82.6862C122.949 77.4812 132.117 80.9896 141.755 81.5413C141.631 80.0074 139.633 76.3254 138.817 75.0135C134.712 68.4145 126.905 67.9925 120.623 64.598C115.462 61.8101 114.8 59.5855 111.916 54.3306C109.63 50.1646 104.493 47.4191 99.8617 51.5475ZM86.5286 82.4142C90.0543 81.9768 96.7923 81.537 100.866 82.0336C104.66 82.4963 105.975 83.6822 108.978 84.6221C112.142 82.5628 115.475 79.2734 118.848 78.0486C122.311 76.7911 125.683 77.4301 131.331 78.6376C129.973 76.4975 126.373 74.3288 122.744 73.4943C118.773 72.5807 116.458 71.7064 112.091 69.7042C108.493 68.3385 103.462 68.9142 99.9509 67.017C95.9731 64.8675 95.1618 61.2729 93.4656 58.6664C89.6121 59.2597 81.8614 70.4115 80.0429 76.275C76.9254 86.3238 84.2635 93.5949 88.5069 97.4951C88.0117 95.1673 84.5506 88.5861 86.5286 82.4142Z" fill="white"/>
<path d="M312.335 359.02H296.458L314.345 304.828H334.456L352.343 359.02H336.467L324.612 319.752H324.189L312.335 359.02ZM309.371 337.64H339.218V348.647H309.371V337.64Z" fill="white"/>
<path d="M262.999 321.763C262.858 319.999 262.196 318.623 261.014 317.635C259.85 316.647 258.077 316.154 255.696 316.154C254.178 316.154 252.935 316.339 251.965 316.709C251.012 317.062 250.306 317.547 249.848 318.165C249.389 318.782 249.151 319.488 249.133 320.281C249.098 320.934 249.213 321.525 249.477 322.054C249.76 322.566 250.201 323.033 250.8 323.457C251.4 323.862 252.167 324.233 253.102 324.568C254.037 324.903 255.149 325.203 256.436 325.468L260.882 326.42C263.881 327.055 266.447 327.893 268.582 328.934C270.716 329.975 272.463 331.201 273.821 332.612C275.179 334.006 276.176 335.576 276.811 337.322C277.464 339.068 277.799 340.974 277.817 343.038C277.799 346.601 276.908 349.617 275.144 352.087C273.38 354.557 270.857 356.435 267.576 357.723C264.313 359.011 260.388 359.655 255.801 359.655C251.091 359.655 246.981 358.958 243.471 357.564C239.978 356.171 237.261 354.028 235.321 351.134C233.398 348.224 232.428 344.502 232.41 339.968H246.381C246.47 341.626 246.884 343.02 247.625 344.149C248.366 345.278 249.407 346.133 250.747 346.716C252.106 347.298 253.72 347.589 255.59 347.589C257.16 347.589 258.474 347.395 259.532 347.007C260.591 346.619 261.393 346.081 261.94 345.393C262.487 344.705 262.769 343.92 262.787 343.038C262.769 342.208 262.496 341.485 261.967 340.868C261.455 340.233 260.608 339.668 259.426 339.174C258.245 338.663 256.648 338.186 254.637 337.745L249.239 336.581C244.441 335.54 240.657 333.803 237.888 331.368C235.136 328.916 233.769 325.574 233.786 321.34C233.769 317.9 234.686 314.892 236.538 312.317C238.408 309.724 240.992 307.704 244.291 306.257C247.607 304.811 251.409 304.088 255.696 304.088C260.07 304.088 263.854 304.82 267.047 306.284C270.24 307.748 272.701 309.812 274.43 312.476C276.176 315.122 277.058 318.217 277.076 321.763H262.999Z" fill="white"/>
<path d="M173.714 359.02H157.838L175.725 304.828H195.835L213.722 359.02H197.846L185.992 319.752H185.568L173.714 359.02ZM170.75 337.64H200.598V348.647H170.75V337.64Z" fill="white"/>
<path d="M95.0201 359.02V304.828H118.411C122.433 304.828 125.953 305.56 128.969 307.025C131.986 308.489 134.332 310.597 136.008 313.349C137.683 316.101 138.521 319.399 138.521 323.245C138.521 327.126 137.657 330.398 135.928 333.062C134.217 335.726 131.809 337.737 128.704 339.095C125.617 340.453 122.01 341.132 117.882 341.132H103.911V329.701H114.918C116.647 329.701 118.12 329.49 119.337 329.066C120.572 328.625 121.516 327.929 122.169 326.976C122.839 326.023 123.174 324.78 123.174 323.245C123.174 321.693 122.839 320.431 122.169 319.461C121.516 318.473 120.572 317.75 119.337 317.291C118.12 316.815 116.647 316.577 114.918 316.577H109.732V359.02H95.0201ZM126.773 334.147L140.321 359.02H124.338L111.108 334.147H126.773Z" fill="white"/>
<path d="M73.2033 304.828V359.02H58.4912V304.828H73.2033Z" fill="white"/>
<path d="M0.132324 359.02V304.828H38.2356V316.683H14.8444V325.997H35.9071V337.851H14.8444V359.02H0.132324Z" fill="white"/>
</svg>
